<svg width="20" height="20" viewBox="0 0 20 20" fill="none" xmlns="http://www.w3.org/2000/svg">
<path d="M7.91659 7.50008V15.0001M12.0833 7.50008V15.0001M7.08325 3.75008H2.08325V3.95841L2.28325 4.83342C3.25793 9.0975 3.74991 13.4577 3.74992 17.8317V18.7501H16.2499V17.8317C16.2499 13.4576 16.7416 9.09842 17.7166 4.83342L17.9166 3.95841V3.75008H12.9166M7.08325 3.75008V3.33341C7.08325 2.95039 7.15869 2.57112 7.30527 2.21725C7.45185 1.86339 7.66669 1.54186 7.93752 1.27102C8.20836 1.00018 8.52989 0.785342 8.88376 0.638766C9.23762 0.49219 9.6169 0.416748 9.99992 0.416748C10.3829 0.416748 10.7622 0.49219 11.1161 0.638766C11.4699 0.785342 11.7915 1.00018 12.0623 1.27102C12.3332 1.54186 12.548 1.86339 12.6946 2.21725C12.8411 2.57112 12.9166 2.95039 12.9166 3.33341V3.75008M7.08325 3.75008H12.9166" stroke="#F6F6F6" stroke-width="0.833333"/>
</svg>
