<svg width="24" height="24" viewBox="0 0 24 24" fill="none" xmlns="http://www.w3.org/2000/svg">
<mask id="mask0_170_630" style="mask-type:luminance" maskUnits="userSpaceOnUse" x="0" y="0" width="24" height="24">
<path d="M24 0H0V24H24V0Z" fill="white"/>
</mask>
<g mask="url(#mask0_170_630)">
<path d="M2.73003 17.265L10.026 4.96275C10.1798 4.707 10.3958 4.4955 10.6538 4.3485C10.9118 4.2015 11.2028 4.125 11.499 4.125C11.7953 4.125 12.0863 4.2015 12.3443 4.3485C12.6023 4.4955 12.8183 4.707 12.972 4.96275L20.268 17.265C20.4188 17.5283 20.4983 17.8268 20.499 18.1305C20.4998 18.4343 20.4225 18.7328 20.2733 18.9968C20.124 19.2607 19.9095 19.4813 19.65 19.635C19.3905 19.7888 19.0958 19.872 18.795 19.875H4.20303C3.90228 19.872 3.60753 19.7888 3.34803 19.635C3.08853 19.4813 2.87403 19.2607 2.72478 18.9968C2.57553 18.7328 2.49828 18.4343 2.49903 18.1305C2.49978 17.8268 2.57928 17.5283 2.73003 17.265Z" stroke="#FF8B8B" stroke-width="1.5" stroke-linecap="round" stroke-linejoin="round"/>
<path d="M10.3181 13.1946L11.8601 8.96704" stroke="#FF8B8B" stroke-width="1.5" stroke-linecap="round" stroke-linejoin="round"/>
<path d="M9.62427 15.0969C10.0131 15.2387 10.2137 15.6696 10.0719 16.0584C9.93001 16.4473 9.49912 16.6479 9.11025 16.506C8.72139 16.3642 8.52083 15.9333 8.66267 15.5444C8.80451 15.1556 9.2354 14.955 9.62427 15.0969Z" fill="#FF8B8B"/>
</g>
</svg>
